<?xml version="1.0" encoding="UTF-8" standalone="no"?>
<!-- Created with Inkscape (http://www.inkscape.org/) -->

<svg
   xmlns:svg="http://www.w3.org/2000/svg"
   xmlns="http://www.w3.org/2000/svg"
   version="1.0"
   width="579pt"
   height="579pt"
   viewBox="0 0 579 579"
   id="svg2"><defs
   id="defs12" />
<path
   d="M 32.308552,289.67149 289.33058,546.69352 546.39545,289.62864 C 460.67977,204.01067 375.13344,118.22305 289.37343,32.649481 L 32.308552,289.67149 z"
   id="path4"
   style="fill:#ffffff;stroke:none" />
<path
   d="M 147.659,148.012 6,289.672 147.669,431.34 289.328,573 431.016,431.312 572.704,289.624 431.063,147.984 C 353.166,70.086 289.404,6.343 289.375,6.343 c -0.029,0 -63.799,63.753 -141.716,141.669 z M 408.622,170.425 527.821,289.624 408.574,408.871 289.328,528.108 170.139,408.862 50.949,289.606 170.139,170.417 c 65.557,-65.558 119.208,-119.19 119.237,-119.19 0.029,0 53.688,53.641 119.246,119.198 z"
   id="path6"
   style="fill:#808080;stroke:none" />
<path
   d="m 292.625,142.4375 c -30.438,0 -75.09375,20.97225 -75.09375,57.65625 0,15.372 8.449,25.15625 20.625,25.15625 21.644,0 26.05975,-34.59375 54.46875,-34.59375 14.204,0 28.0625,11.1895 28.0625,26.5625 0,20.264 -13.5345,25.8445 -27.0625,29.6875 -13.867,3.843 -27.40625,5.95325 -27.40625,18.53125 l 0,34.9375 c 0,13.973 9.155,24.09375 24.375,24.09375 14.205,0 24.34375,-10.11975 24.34375,-24.09375 l 0,-12.59375 c 34.834,-9.083 58.5,-31.7835 58.5,-70.5625 0,-46.816 -37.1845,-74.78125 -80.8125,-74.78125 z m -1.34375,201.5 c -0.49661,-10e-4 -0.9815,0.0122 -1.4375,0.0312 -7.502,0.321 -14.59025,3.50975 -20.15625,9.09375 -1.682,1.682 -2.7395,2.98475 -4.0625,4.96875 -3.071,4.62 -4.7405,9.107 -5.5625,15.125 -0.16,1.21 -0.17,6.69025 0,8.03125 0.813,6.615 3.234,12.463 7.25,17.5 0.974,1.229 2.95625,3.2815 4.15625,4.3125 3.628,3.108 8.01225,5.43525 12.40625,6.53125 2.873,0.718 4.35975,0.875 7.46875,0.875 3.063,0 4.63175,-0.16475 7.34375,-0.84375 7.39,-1.843 14.0255,-6.59475 18.4375,-13.21875 3.251,-4.895 5.124,-10.33375 5.625,-16.34375 0.132,-1.616 0.0428,-5.708 -0.15625,-7.125 -0.558,-4.11 -1.54575,-7.45725 -3.21875,-10.90625 -4.715,-9.686 -13.71125,-16.37325 -23.90625,-17.78125 -1.11225,-0.1485 -2.69767,-0.24606 -4.1875,-0.25 z"
   id="path8"
   style="fill:#404040;stroke:none" />
</svg>
